<svg xmlns="http://www.w3.org/2000/svg" viewBox="0 0 512 512" width="512" height="512">
  <defs>
    <linearGradient id="bg" x1="0%" y1="0%" x2="100%" y2="100%">
      <stop offset="0%" stop-color="#1c1917"/>
      <stop offset="100%" stop-color="#0c0a09"/>
    </linearGradient>
    <linearGradient id="amber1" x1="0%" y1="0%" x2="100%" y2="100%">
      <stop offset="0%" stop-color="#fbbf24"/>
      <stop offset="100%" stop-color="#f59e0b"/>
    </linearGradient>
    <linearGradient id="amber2" x1="0%" y1="0%" x2="100%" y2="100%">
      <stop offset="0%" stop-color="#f59e0b"/>
      <stop offset="100%" stop-color="#d97706"/>
    </linearGradient>
    <linearGradient id="amber3" x1="0%" y1="0%" x2="100%" y2="100%">
      <stop offset="0%" stop-color="#d97706"/>
      <stop offset="100%" stop-color="#b45309"/>
    </linearGradient>
    <linearGradient id="highlight" x1="0%" y1="0%" x2="100%" y2="100%">
      <stop offset="0%" stop-color="#fde68a"/>
      <stop offset="100%" stop-color="#fbbf24"/>
    </linearGradient>
  </defs>

  <rect width="512" height="512" rx="108" ry="108" fill="url(#bg)"/>
  <polygon points="256,100 370,256 256,412 142,256" fill="url(#amber1)" opacity="0.95"/>
  <polygon points="340,80 410,170 340,260 270,170" fill="url(#amber2)" opacity="0.8"/>
  <polygon points="172,260 222,320 172,380 122,320" fill="url(#amber3)" opacity="0.85"/>
  <polygon points="150,110 178,148 150,186 122,148" fill="url(#highlight)" opacity="0.7"/>
  <polygon points="362,340 386,372 362,404 338,372" fill="url(#highlight)" opacity="0.6"/>
  <polygon points="256,140 345,256 256,372 167,256" fill="none" stroke="#fde68a" stroke-width="1.5" opacity="0.3"/>
</svg>
